# xmcd
#
# Track frame offsets:
#	150
#	12635
#	25615
#	36795
#	49547
#	61762
#	73542
#	86140
#	99285
#	110075
#	123265
#	135415
#	147227
#	158130
#	171755
#
# Disc length: 2437 seconds
#
# Revision: 0
# Processed by: cddbd v1.5.1PL0 Copyright (c) Steve Scherf et al.
# Submitted via: dBpowerAMP V4.0
#
DISCID=c009830f
DTITLE=Jimmy Witherspoon - Call My Baby
DYEAR=1900
DGENRE=Blues
TTITLE0=Times Gettin' Tougher
TTITLE1=Wanderin Gal
TTITLE2=The New Look
TTITLE3=Long About Dawn
TTITLE4=Big Heart
TTITLE5=Third Floor Blues
TTITLE6=Hey Mr. Landlord
TTITLE7=Ain't Nobody's Business Pt. 1
TTITLE8=Call My Baby
TTITLE9=Skid Row Blues
TTITLE10=Mr. Hootie
TTITLE11=Lush Head Woman
TTITLE12=Funny Style Baby
TTITLE13=Ain't Nobody's Business Pt. 2
TTITLE14=Miss Clawdy B
EXTD=
EXTT0=
EXTT1=
EXTT2=
EXTT3=
EXTT4=
EXTT5=
EXTT6=
EXTT7=
EXTT8=
EXTT9=
EXTT10=
EXTT11=
EXTT12=
EXTT13=
EXTT14=
PLAYORDER=
